#!OML:ASF F:\VICON\USERDATA\INSTALL\Justin_Nancy\Justin_Nancy.ASF
:FULLY-SPECIFIED
:DEGREES
130
root 2.59823 16.0912 11.3712 -9.82208 55.6203 -17.0986
lowerback 13.5741 -1.952 -1.38155
upperback 3.1199 -2.36957 5.56767
thorax -4.00935 -1.10193 7.08526
lowerneck -14.673 0.638897 -5.53926
upperneck 16.5412 1.76661 2.15934
head 7.43767 0.715631 1.80774
rclavicle -7.10096e-014 1.39646e-014
rhumerus -50.072 20.4291 -78.1105
rradius 96.7027
rwrist -18.9905
rhand -12.1457 26.5588
rfingers 7.12502
rthumb 13.9165 -2.95554
lclavicle -7.10096e-014 1.39646e-014
lhumerus -41.7275 -28.4055 102.021
lradius 102.283
lwrist 19.853
lhand -19.3465 5.13567
lfingers 7.12502
lthumb 6.97068 35.0009
rfemur -35.9136 3.06853 7.28764
rtibia 37.4432
rfoot -6.95357 1.52092
rtoes -14.8035
lfemur -0.419309 1.35753 -36.3967
ltibia 46.0489
lfoot 18.4458 -22.2444
ltoes 23.3769
131
root 2.89791 16.0759 11.5398 -7.50517 57.262 -14.2418
lowerback 13.4237 -2.08174 -2.7119
upperback 3.17887 -2.7671 5.03267
thorax -3.77271 -1.30367 7.32563
lowerneck -14.9842 0.387346 -5.9461
upperneck 16.6313 1.43105 2.70221
head 7.5272 0.580606 2.02268
rclavicle -7.08357e-014 2.19781e-014
rhumerus -49.5326 19.974 -79.4214
rradius 97.0034
rwrist -18.6205
rhand -12.2857 26.4494
rfingers 7.12502
rthumb 13.7817 -3.07414
lclavicle -7.08357e-014 2.19781e-014
lhumerus -42.9747 -29.2363 102.854
lradius 99.4998
lwrist 19.4523
lhand -19.0961 4.95075
lfingers 7.12502
lthumb 7.2124 34.8078
rfemur -34.3709 3.27139 4.76581
rtibia 36.5858
rfoot -6.08682 1.57094
rtoes -12.1853
lfemur -1.69927 1.64516 -37.4538
ltibia 50.3836
lfoot 13.92 -18.6646
ltoes 12.6106
132
root 3.19733 16.1206 11.7638 -10.5492 57.9088 -16.9092
lowerback 13.7724 -2.04272 -1.96898
upperback 3.53058 -2.57733 5.43363
thorax -3.63373 -1.21555 7.308
lowerneck -15.0101 0.153437 -6.01228
upperneck 16.4999 1.06609 3.02058
head 7.50222 0.434504 2.09876
rclavicle 9.08508e-014 5.97596e-015
rhumerus -49.2344 19.2923 -81.0367
rradius 97.3813
rwrist -17.7781
rhand -12.0978 26.621
rfingers 7.12502
rthumb 13.9628 -2.8901
lclavicle 9.08508e-014 5.97596e-015
lhumerus -43.9509 -29.738 103.693
lradius 96.2604
lwrist 18.4501
lhand -19.4959 4.57222
lfingers 7.12502
lthumb 6.82646 34.4422
rfemur -31.6187 5.72348 5.79845
rtibia 35.6362
rfoot -5.48029 0.0550577
rtoes -9.95227
lfemur -2.74202 3.00516 -34.5812
ltibia 55.0659
lfoot 10.1261 -15.2613
ltoes 3.93247
133
root 3.49212 16.1248 11.9372 -12.4185 58.9462 -18.5682
lowerback 14.2212 -2.21514 -1.05422
upperback 3.64417 -2.65287 5.50511
thorax -3.78851 -1.24847 6.89051
lowerneck -15.0785 -0.0719038 -6.13322
upperneck 16.3532 0.736196 3.3004
head 7.47975 0.298035 2.17486
rclavicle 5.60262e-014 -2.30342e-014
rhumerus -48.8417 19.015 -82.8526
rradius 97.6684
rwrist -16.6128
rhand -12.146 27.1522
rfingers 7.12502
rthumb 13.9163 -2.36211
lclavicle 5.60262e-014 -2.30342e-014
lhumerus -45.0544 -29.6738 104.399
lradius 93.3221
lwrist 17.3864
lhand -19.6678 4.48768
lfingers 7.12502
lthumb 6.66049 34.3629
rfemur -29.4003 6.65998 6.23122
rtibia 35.3893
rfoot -5.23875 -0.369994
rtoes -8.50027
lfemur -4.50429 3.76469 -32.7894
ltibia 59.6193
lfoot 7.95043 -12.1503
ltoes 0.68952
134
root 3.78155 16.0949 12.1162 -10.6877 60.5621 -16.6059
lowerback 14.2193 -2.37255 -1.9291
upperback 3.59111 -3.01881 5.04854
thorax -3.77543 -1.42958 6.96211
lowerneck -15.2807 -0.252709 -6.41775
upperneck 16.099 0.496435 3.67248
head 7.4413 0.204535 2.31715
rclavicle 4.06639e-014 -2.51214e-014
rhumerus -48.2133 19.4668 -84.8455
rradius 97.919
rwrist -15.4488
rhand -13.1489 27.0868
rfingers 7.12502
rthumb 12.9497 -2.49136
lclavicle 4.06639e-014 -2.51214e-014
lhumerus -45.8076 -28.9884 104.857
lradius 90.4145
lwrist 16.3679
lhand -19.9012 4.22039
lfingers 7.12502
lthumb 6.43521 34.1026
rfemur -27.5621 6.7285 4.61335
rtibia 35.1407
rfoot -6.19803 -0.566907
rtoes -9.97786
lfemur -6.89913 4.45307 -33.0308
ltibia 63.9657
lfoot 6.58784 -9.93633
ltoes 1.62324
135
root 4.0659 16.0599 12.3299 -8.4002 62.1798 -14.0138
lowerback 14.2143 -2.43502 -3.39537
upperback 3.5574 -3.34435 4.62568
thorax -3.70117 -1.59042 7.40361
lowerneck -15.4492 -0.401347 -6.77593
upperneck 15.7164 0.33257 3.9702
head 7.35265 0.137038 2.45275
rclavicle 1.2424e-014 -8.74653e-015
rhumerus -47.445 20.1243 -86.7897
rradius 98.3271
rwrist -15.5088
rhand -13.1886 26.7236
rfingers 7.12502
rthumb 12.9114 -2.85699
lclavicle 1.2424e-014 -8.74653e-015
lhumerus -45.8557 -27.7324 105.02
lradius 87.1244
lwrist 15.6501
lhand -20.2887 5.08136
lfingers 7.12502
lthumb 6.06105 34.9747
rfemur -25.3272 6.91143 2.93088
rtibia 34.5535
rfoot -8.24818 -1.93601
rtoes -15.7812
lfemur -9.31463 5.12728 -33.2733
ltibia 68.2249
lfoot 5.46248 -7.99744
ltoes 4.41543
136
root 4.34874 16.0391 12.5595 -8.2866 63.6603 -13.7052
lowerback 14.4234 -2.40187 -3.95539
upperback 3.53492 -3.3932 4.45943
thorax -3.80621 -1.60726 7.57021
lowerneck -15.503 -0.749001 -7.04071
upperneck 15.4564 -0.154456 4.40156
head 7.30484 -0.0683636 2.58409
rclavicle 2.16675e-014 -1.2275e-014
rhumerus -46.9311 20.3704 -88.9254
rradius 99.0346
rwrist -15.9577
rhand -13.0687 26.3179
rfingers 7.12502
rthumb 13.0269 -3.25539
lclavicle 2.16675e-014 -1.2275e-014
lhumerus -45.9032 -26.417 104.961
lradius 83.8408
lwrist 15.5876
lhand -19.7145 5.90015
lfingers 7.12502
lthumb 6.6154 35.7768
rfemur -22.8936 7.69569 2.51892
rtibia 34.2273
rfoot -10.7943 -3.47178
rtoes -18.7222
lfemur -11.751 5.78388 -32.1832
ltibia 72.2975
lfoot 4.33577 -6.52547
ltoes 6.40231
137
root 4.64198 16.0675 12.8624 -19.5589 63.0336 -24.8095
lowerback 15.3798 -2.14031 -0.640888
upperback 4.06978 -2.40384 5.9906
thorax -3.98986 -1.10822 7.19048
lowerneck -15.6232 -1.36871 -7.40588
upperneck 15.3584 -0.99973 4.91942
head 7.34985 -0.443781 2.72453
rclavicle -5.1684e-015 -3.52843e-015
rhumerus -46.4305 20.3364 -90.9162
rradius 99.7477
rwrist -15.905
rhand -13.4418 26.2009
rfingers 7.12502
rthumb 12.6673 -3.39491
lclavicle -5.1684e-015 -3.52843e-015
lhumerus -46.5619 -25.6012 104.974
lradius 81.5079
lwrist 16.0222
lhand -18.9757 5.90828
lfingers 7.12502
lthumb 7.32864 35.7614
rfemur -19.254 11.869 8.64791
rtibia 33.6052
rfoot -13.6011 -5.90506
rtoes -17.7
lfemur -13.3853 8.15589 -24.1213
ltibia 76.6254
lfoot 2.21364 -7.6496
ltoes 6.42075
138
root 4.91025 15.9716 12.9468 -16.5901 65.1031 -22.2959
lowerback 15.4213 -1.84478 -0.929098
upperback 3.60779 -2.09885 5.3366
thorax -4.55864 -0.942892 6.60851
lowerneck -15.6411 -2.12735 -7.52151
upperneck 14.8984 -2.03838 5.1349
head 7.27512 -0.924156 2.69651
rclavicle 1.04207e-014 7.20594e-015
rhumerus -45.6129 20.0183 -92.2577
rradius 100.637
rwrist -16.4842
rhand -13.1412 25.9816
rfingers 7.12502
rthumb 12.9571 -3.59604
lclavicle 1.04207e-014 7.20594e-015
lhumerus -47.3118 -25.4006 105.235
lradius 79.9452
lwrist 17.0263
lhand -19.8523 6.53682
lfingers 7.12502
lthumb 6.48239 36.4176
rfemur -18.0891 10.2021 6.41847
rtibia 33.2476
rfoot -15.6768 -4.85666
rtoes -22.0283
lfemur -17.4856 7.79421 -25.7764
ltibia 80.3442
lfoot 0.600122 -6.39444
ltoes 7.30317
139
root 5.17359 15.9363 13.2677 -15.5992 67.154 -20.8323
lowerback 15.4278 -1.0726 -4.24452
upperback 3.7844 -1.59559 5.54551
thorax -4.31745 -0.679074 8.67919
lowerneck -15.5334 -2.75586 -7.23516
upperneck 14.1304 -2.92103 4.9473
head 7.05915 -1.34603 2.48478
rclavicle -2.88735e-014 3.03147e-014
rhumerus -44.6013 20.0283 -93.441
rradius 101.632
rwrist -17.0264
rhand -12.9292 25.9377
rfingers 7.12502
rthumb 13.1614 -3.62693
lclavicle -2.88735e-014 3.03147e-014
lhumerus -48.0204 -24.9645 105.339
lradius 79.1642
lwrist 17.4633
lhand -21.8408 8.47594
lfingers 7.12502
lthumb 4.56247 38.4068
rfemur -15.2963 10.2723 6.12552
rtibia 33.0094
rfoot -17.5735 -7.30498
rtoes -25.7153
lfemur -19.9576 8.25375 -25.0207
ltibia 83.6596
lfoot -1.47495 -6.60143
ltoes 8.91984
140
root 5.42449 15.8608 13.4389 -20.1595 68.4489 -24.6219
lowerback 17.1447 -1.08427 -3.32116
upperback 3.96848 -1.4304 5.73444
thorax -5.09799 -0.564189 8.39191
lowerneck -15.685 -3.0906 -7.1449
upperneck 13.6475 -3.40421 5.10582
head 6.96067 -1.55594 2.46535
rclavicle -1.37907e-014 -1.65985e-014
rhumerus -43.4384 21.031 -94.9817
rradius 102.598
rwrist -16.7593
rhand -12.5472 26.1275
rfingers 7.12502
rthumb 13.5297 -3.41292
lclavicle -1.37907e-014 -1.65985e-014
lhumerus -49.17 -23.6568 104.358
lradius 79.7003
lwrist 18.2092
lhand -20.6643 7.93665
lfingers 7.12502
lthumb 5.69845 37.84
rfemur -12.5769 9.15859 7.75684
rtibia 33.4434
rfoot -19.4706 -7.96404
rtoes -25.3605
lfemur -22.5282 9.10685 -22.9521
ltibia 86.9105
lfoot -3.75084 -5.65961
ltoes 4.84081
141
root 5.64118 15.7845 13.5495 -26.3176 67.3566 -31.164
lowerback 18.5069 -0.872758 -0.404389
upperback 3.91134 -0.523133 6.173
thorax -6.07987 -0.105854 7.02911
lowerneck -16.0659 -3.40465 -7.05349
upperneck 13.3754 -3.87644 5.4332
head 6.97272 -1.74342 2.50122
rclavicle -1.48988e-014 -3.62875e-014
rhumerus -42.1621 22.2604 -96.687
rradius 103.567
rwrist -16.2667
rhand -12.2 26.3301
rfingers 7.12502
rthumb 13.8643 -3.18776
lclavicle -1.48988e-014 -3.62875e-014
lhumerus -50.649 -22.4608 102.951
lradius 81.2395
lwrist 19.0288
lhand -20.6206 8.4564
lfingers 7.12502
lthumb 5.74065 38.3586
rfemur -11.8473 8.45847 10.9781
rtibia 33.7409
rfoot -19.9742 -7.57081
rtoes -27.5829
lfemur -26.6951 11.991 -19.178
ltibia 90.0926
lfoot -5.82539 -5.57176
ltoes 0.0344431
142
root 5.90806 15.7327 13.6615 -30.9355 66.825 -36.0841
lowerback 19.286 -0.472057 1.97542
upperback 3.85176 0.556584 6.36705
thorax -6.68399 0.40437 5.62416
lowerneck -16.2204 -4.03093 -6.80425
upperneck 13.042 -4.82162 5.76138
head 6.95542 -2.15289 2.459
rclavicle -1.67849e-014 2.66371e-014
rhumerus -40.9414 22.5428 -98.0319
rradius 104.622
rwrist -15.6301
rhand -12.1681 26.6134
rfingers 7.12502
rthumb 13.895 -2.90242
lclavicle -1.67849e-014 2.66371e-014
lhumerus -52.4705 -22.7501 102.092
lradius 83.2807
lwrist 20.1988
lhand -22.7362 9.96695
lfingers 7.12502
lthumb 3.69786 39.9146
rfemur -10.6636 7.03088 13.3068
rtibia 33.7168
rfoot -20.2553 -7.45657
rtoes -30.1806
lfemur -30.4789 13.76 -16.5389
ltibia 92.3904
lfoot -7.4833 -6.11513
ltoes 1.52938
